STARTFONT 2.1
FONT -Monotype-Century Schoolbook-Regular-I-Normal--17-120-100-100-P-87-iso8859-2
SIZE 12 100 100
FONTBOUNDINGBOX 25 20 -7 -4

STARTPROPERTIES 24
FOUNDRY "Monotype"
FAMILY_NAME "Century Schoolbook"
WEIGHT_NAME "Regular"
SLANT "I"
SETWIDTH_NAME "Normal"
ADD_STYLE_NAME ""
PIXEL_SIZE 17
POINT_SIZE 120
RESOLUTION_X 100
RESOLUTION_Y 100
SPACING "P"
AVERAGE_WIDTH 87
CHARSET_REGISTRY "iso8859"
CHARSET_ENCODING "2"
FACE_NAME "Century Schoolbook it ISO Latin2"
_DEC_DEVICE_FONTNAMES "PS=centuryschoolbook-italic-lat2"
COPYRIGHT "Copyright (c) 1994 Monotype Typography Ltd."
CAP_HEIGHT 15
X_HEIGHT 10
WEIGHT 10
QUAD_WIDTH 9
DEFAULT_CHAR 160
FONT_DESCENT 4
FONT_ASCENT 18
ENDPROPERTIES

CHARS 191

STARTCHAR space
ENCODING 32
SWIDTH 278 0
DWIDTH 5 0
BBX 0 0 0 0
BITMAP
ENDCHAR

STARTCHAR exclam
ENCODING 33
SWIDTH 333 0
DWIDTH 6 0
BBX 4 12 2 0
BITMAP
30
30
30
30
60
60
60
40
40
00
C0
C0
ENDCHAR

STARTCHAR quotedbl
ENCODING 34
SWIDTH 400 0
DWIDTH 7 0
BBX 5 5 3 7
BITMAP
48
D8
D8
90
90
ENDCHAR

STARTCHAR numbersign
ENCODING 35
SWIDTH 606 0
DWIDTH 10 0
BBX 11 12 1 0
BITMAP
0880
0880
0880
7FE0
1100
1100
1100
FFC0
2200
2200
2200
2200
ENDCHAR

STARTCHAR dollar
ENCODING 36
SWIDTH 556 0
DWIDTH 9 0
BBX 9 15 1 -2
BITMAP
0400
0F00
1D80
3580
3500
3400
3800
1C00
1E00
5600
D600
D600
7C00
1000
1000
ENDCHAR

STARTCHAR percent
ENCODING 37
SWIDTH 833 0
DWIDTH 14 0
BBX 12 12 2 0
BITMAP
3040
5880
C900
8900
9A00
D460
64B0
0990
1110
1130
21A0
40C0
ENDCHAR

STARTCHAR ampersand
ENCODING 38
SWIDTH 852 0
DWIDTH 14 0
BBX 13 12 1 0
BITMAP
0380
0640
0C40
0C80
0F00
3C78
6630
C620
C340
C188
E390
7CE0
ENDCHAR

STARTCHAR quoteright
ENCODING 39
SWIDTH 204 0
DWIDTH 3 0
BBX 3 4 1 8
BITMAP
60
60
40
80
ENDCHAR

STARTCHAR parenleft
ENCODING 40
SWIDTH 333 0
DWIDTH 6 0
BBX 5 15 1 -3
BITMAP
08
10
30
20
60
40
C0
C0
C0
C0
C0
C0
40
40
20
ENDCHAR

STARTCHAR parenright
ENCODING 41
SWIDTH 333 0
DWIDTH 6 0
BBX 5 15 0 -3
BITMAP
20
10
10
18
18
18
18
18
18
10
30
20
60
40
80
ENDCHAR

STARTCHAR asterisk
ENCODING 42
SWIDTH 500 0
DWIDTH 9 0
BBX 6 7 2 5
BITMAP
30
30
94
EC
30
48
48
ENDCHAR

STARTCHAR plus
ENCODING 43
SWIDTH 606 0
DWIDTH 10 0
BBX 9 9 1 1
BITMAP
0800
0800
0800
0800
FF80
0800
0800
0800
0800
ENDCHAR

STARTCHAR comma
ENCODING 44
SWIDTH 278 0
DWIDTH 5 0
BBX 3 4 0 -2
BITMAP
60
60
40
80
ENDCHAR

STARTCHAR minus
ENCODING 45
SWIDTH 606 0
DWIDTH 10 0
BBX 10 1 1 5
BITMAP
FFC0
ENDCHAR

STARTCHAR period
ENCODING 46
SWIDTH 278 0
DWIDTH 5 0
BBX 2 2 1 0
BITMAP
C0
C0
ENDCHAR

STARTCHAR slash
ENCODING 47
SWIDTH 606 0
DWIDTH 10 0
BBX 9 13 1 0
BITMAP
0080
0180
0100
0300
0600
0400
0C00
1800
1000
3000
6000
4000
C000
ENDCHAR

STARTCHAR zero
ENCODING 48
SWIDTH 556 0
DWIDTH 9 0
BBX 8 12 2 0
BITMAP
0E
13
33
63
63
63
C6
C6
C6
CC
C8
70
ENDCHAR

STARTCHAR one
ENCODING 49
SWIDTH 556 0
DWIDTH 9 0
BBX 6 12 2 0
BITMAP
04
3C
0C
0C
18
18
18
18
30
30
30
FC
ENDCHAR

STARTCHAR two
ENCODING 50
SWIDTH 556 0
DWIDTH 9 0
BBX 9 12 1 0
BITMAP
0E00
1100
2180
3180
1180
0300
0600
0C00
1000
2100
7F00
FE00
ENDCHAR

STARTCHAR three
ENCODING 51
SWIDTH 556 0
DWIDTH 9 0
BBX 8 12 2 0
BITMAP
1E
33
13
03
06
38
04
06
46
C6
4C
38
ENDCHAR

STARTCHAR four
ENCODING 52
SWIDTH 556 0
DWIDTH 9 0
BBX 9 12 1 0
BITMAP
0180
0380
0700
0B00
1300
2300
4600
8600
FF00
0C00
0C00
3E00
ENDCHAR

STARTCHAR five
ENCODING 53
SWIDTH 556 0
DWIDTH 9 0
BBX 9 12 1 0
BITMAP
1F80
1F00
1000
3000
3C00
6600
0300
0300
4300
C600
8C00
7800
ENDCHAR

STARTCHAR six
ENCODING 54
SWIDTH 556 0
DWIDTH 9 0
BBX 9 12 2 0
BITMAP
0700
1980
3100
6000
6000
DC00
F600
E600
C600
C600
CC00
7800
ENDCHAR

STARTCHAR seven
ENCODING 55
SWIDTH 556 0
DWIDTH 9 0
BBX 8 12 3 0
BITMAP
7F
FE
86
0C
0C
18
30
30
60
60
C0
C0
ENDCHAR

STARTCHAR eight
ENCODING 56
SWIDTH 556 0
DWIDTH 9 0
BBX 8 12 2 0
BITMAP
0E
13
33
33
3A
1C
26
66
C6
C6
C4
78
ENDCHAR

STARTCHAR nine
ENCODING 57
SWIDTH 556 0
DWIDTH 9 0
BBX 9 12 1 0
BITMAP
0F00
1980
3180
3180
3380
3780
1D80
0300
0300
4600
CC00
7000
ENDCHAR

STARTCHAR colon
ENCODING 58
SWIDTH 278 0
DWIDTH 5 0
BBX 4 8 1 0
BITMAP
30
30
00
00
00
00
C0
C0
ENDCHAR

STARTCHAR semicolon
ENCODING 59
SWIDTH 278 0
DWIDTH 5 0
BBX 5 10 0 -2
BITMAP
18
18
00
00
00
00
60
60
40
80
ENDCHAR

STARTCHAR less
ENCODING 60
SWIDTH 606 0
DWIDTH 10 0
BBX 10 9 1 1
BITMAP
00C0
0380
0E00
3800
E000
3800
0E00
0380
00C0
ENDCHAR

STARTCHAR equal
ENCODING 61
SWIDTH 606 0
DWIDTH 10 0
BBX 10 5 1 3
BITMAP
FFC0
0000
0000
0000
FFC0
ENDCHAR

STARTCHAR greater
ENCODING 62
SWIDTH 606 0
DWIDTH 10 0
BBX 10 9 1 1
BITMAP
C000
7000
1C00
0700
01C0
0700
1C00
7000
C000
ENDCHAR

STARTCHAR question
ENCODING 63
SWIDTH 444 0
DWIDTH 8 0
BBX 6 13 1 0
BITMAP
38
4C
8C
8C
18
30
60
40
50
20
00
60
60
ENDCHAR

STARTCHAR at
ENCODING 64
SWIDTH 747 0
DWIDTH 13 0
BBX 12 13 1 0
BITMAP
0F00
30C0
4020
43A0
8490
8890
9990
9920
9F60
4980
4020
30C0
0F00
ENDCHAR

STARTCHAR A
ENCODING 65
SWIDTH 704 0
DWIDTH 12 0
BBX 12 12 0 0
BITMAP
0060
00E0
01E0
0160
0260
0460
0860
1FE0
1060
2060
4060
E0F0
ENDCHAR

STARTCHAR B
ENCODING 66
SWIDTH 722 0
DWIDTH 12 0
BBX 11 12 1 0
BITMAP
3F80
18C0
1860
1860
30C0
3F80
3180
30C0
60C0
60C0
6180
FF00
ENDCHAR

STARTCHAR C
ENCODING 67
SWIDTH 722 0
DWIDTH 12 0
BBX 11 12 2 0
BITMAP
07A0
18E0
3040
6040
6000
C000
C000
C000
C000
C040
6180
3E00
ENDCHAR

STARTCHAR D
ENCODING 68
SWIDTH 778 0
DWIDTH 13 0
BBX 12 12 1 0
BITMAP
3F80
1860
1820
1830
3030
3030
3030
3060
6060
60C0
6180
FE00
ENDCHAR

STARTCHAR E
ENCODING 69
SWIDTH 722 0
DWIDTH 12 0
BBX 12 12 1 0
BITMAP
3FF0
1830
1820
1920
3100
3F00
3200
3200
6220
6040
60C0
FF80
ENDCHAR

STARTCHAR F
ENCODING 70
SWIDTH 667 0
DWIDTH 11 0
BBX 12 12 1 0
BITMAP
3FF0
1830
1820
18A0
3080
3F80
3100
3100
6100
6000
6000
F000
ENDCHAR

STARTCHAR G
ENCODING 71
SWIDTH 778 0
DWIDTH 13 0
BBX 12 12 2 0
BITMAP
07A0
18E0
3040
6040
6000
C000
C1F0
C040
C0C0
C0C0
6380
3C80
ENDCHAR

STARTCHAR H
ENCODING 72
SWIDTH 833 0
DWIDTH 14 0
BBX 14 12 1 0
BITMAP
3C3C
1818
1818
1818
3030
3FF0
3030
3030
6060
6060
6060
F0F0
ENDCHAR

STARTCHAR I
ENCODING 73
SWIDTH 407 0
DWIDTH 6 0
BBX 6 12 1 0
BITMAP
3C
18
18
18
30
30
30
30
60
60
60
F0
ENDCHAR

STARTCHAR J
ENCODING 74
SWIDTH 611 0
DWIDTH 10 0
BBX 10 12 1 0
BITMAP
03C0
0180
0180
0180
0300
0300
0300
4600
C600
8600
8C00
7800
ENDCHAR

STARTCHAR K
ENCODING 75
SWIDTH 741 0
DWIDTH 13 0
BBX 12 12 1 0
BITMAP
3C70
1820
1840
1880
3100
3200
3700
3B00
7180
6180
60C0
F1E0
ENDCHAR

STARTCHAR L
ENCODING 76
SWIDTH 667 0
DWIDTH 11 0
BBX 10 12 1 0
BITMAP
3C00
1800
1800
1800
3000
3000
3000
3000
6040
6080
6180
FF80
ENDCHAR

STARTCHAR M
ENCODING 77
SWIDTH 944 0
DWIDTH 16 0
BBX 16 12 1 0
BITMAP
3C07
1C0E
1C16
1C26
2C2C
2C4C
268C
268C
4718
4718
4618
E63C
ENDCHAR

STARTCHAR N
ENCODING 78
SWIDTH 815 0
DWIDTH 14 0
BBX 13 12 1 0
BITMAP
3838
1810
1C10
1C10
1610
2620
2320
2320
41A0
41C0
40C0
E0C0
ENDCHAR

STARTCHAR O
ENCODING 79
SWIDTH 778 0
DWIDTH 13 0
BBX 11 12 2 0
BITMAP
0700
18C0
3040
6060
6060
C060
C060
C0C0
C0C0
4180
6300
1C00
ENDCHAR

STARTCHAR P
ENCODING 80
SWIDTH 667 0
DWIDTH 11 0
BBX 11 12 1 0
BITMAP
3F80
1840
1860
1860
3060
30C0
3F00
3000
6000
6000
6000
F000
ENDCHAR

STARTCHAR Q
ENCODING 81
SWIDTH 778 0
DWIDTH 13 0
BBX 11 15 2 -3
BITMAP
0700
18C0
3040
6060
6060
C060
C060
C0C0
DCC0
6380
6300
1F00
0300
0340
0180
ENDCHAR

STARTCHAR R
ENCODING 82
SWIDTH 741 0
DWIDTH 13 0
BBX 12 12 1 0
BITMAP
3FE0
1830
1830
1830
3060
3FC0
3300
3180
6180
6180
61A0
F0C0
ENDCHAR

STARTCHAR S
ENCODING 83
SWIDTH 667 0
DWIDTH 11 0
BBX 10 12 1 0
BITMAP
0F40
10C0
30C0
3040
3840
1E00
0F00
8380
8180
C180
E100
BE00
ENDCHAR

STARTCHAR T
ENCODING 84
SWIDTH 685 0
DWIDTH 12 0
BBX 12 12 1 0
BITMAP
3FE0
6630
4610
C610
8C10
0C00
0C00
0C00
1800
1800
1800
3C00
ENDCHAR

STARTCHAR U
ENCODING 85
SWIDTH 815 0
DWIDTH 14 0
BBX 13 12 2 0
BITMAP
7838
3010
3010
3010
6020
6020
6020
C040
C040
C080
6100
3E00
ENDCHAR

STARTCHAR V
ENCODING 86
SWIDTH 704 0
DWIDTH 12 0
BBX 11 12 3 0
BITMAP
F1E0
60C0
6080
6100
6100
6200
6400
6400
6800
7000
7000
6000
ENDCHAR

STARTCHAR W
ENCODING 87
SWIDTH 926 0
DWIDTH 16 0
BBX 16 12 2 0
BITMAP
F3CF
6186
6184
6388
6388
6590
65A0
69A0
69C0
71C0
71C0
6180
ENDCHAR

STARTCHAR X
ENCODING 88
SWIDTH 704 0
DWIDTH 12 0
BBX 12 12 1 0
BITMAP
3CF0
1860
1840
0C80
0D00
0600
0600
0B00
1300
2180
6180
F3C0
ENDCHAR

STARTCHAR Y
ENCODING 89
SWIDTH 685 0
DWIDTH 12 0
BBX 11 12 2 0
BITMAP
F0E0
6040
3080
3100
1900
1A00
0C00
0C00
0C00
1800
1800
3C00
ENDCHAR

STARTCHAR Z
ENCODING 90
SWIDTH 667 0
DWIDTH 11 0
BBX 11 12 1 0
BITMAP
3FE0
30C0
6180
4300
0300
0600
0C00
1800
1840
30C0
6180
FF80
ENDCHAR

STARTCHAR bracketleft
ENCODING 91
SWIDTH 333 0
DWIDTH 6 0
BBX 7 15 1 -3
BITMAP
1E
18
18
18
30
30
30
30
60
60
60
60
C0
C0
F0
ENDCHAR

STARTCHAR backslash
ENCODING 92
SWIDTH 606 0
DWIDTH 10 0
BBX 3 13 4 0
BITMAP
80
80
C0
C0
C0
C0
40
60
60
60
60
20
20
ENDCHAR

STARTCHAR bracketright
ENCODING 93
SWIDTH 333 0
DWIDTH 6 0
BBX 7 15 -2 -3
BITMAP
1E
06
06
06
0C
0C
0C
0C
18
18
18
18
30
30
F0
ENDCHAR

STARTCHAR asciicircum
ENCODING 94
SWIDTH 606 0
DWIDTH 10 0
BBX 8 6 2 6
BITMAP
08
18
1C
24
42
C3
ENDCHAR

STARTCHAR underscore
ENCODING 95
SWIDTH 500 0
DWIDTH 9 0
BBX 9 1 0 -2
BITMAP
FF80
ENDCHAR

STARTCHAR quoteleft
ENCODING 96
SWIDTH 204 0
DWIDTH 3 0
BBX 3 4 1 8
BITMAP
20
40
C0
C0
ENDCHAR

STARTCHAR a
ENCODING 97
SWIDTH 574 0
DWIDTH 10 0
BBX 9 8 1 0
BITMAP
1D80
3300
6300
C300
C600
C600
4680
3B00
ENDCHAR

STARTCHAR b
ENCODING 98
SWIDTH 556 0
DWIDTH 9 0
BBX 8 12 1 0
BITMAP
70
30
30
30
6E
73
63
63
C3
C6
CE
78
ENDCHAR

STARTCHAR c
ENCODING 99
SWIDTH 444 0
DWIDTH 8 0
BBX 7 8 1 0
BITMAP
1C
66
64
C0
C0
C4
C8
70
ENDCHAR

STARTCHAR d
ENCODING 100
SWIDTH 611 0
DWIDTH 10 0
BBX 9 12 1 0
BITMAP
0380
0180
0180
0180
3B00
6700
6300
C300
C600
C600
C680
7B00
ENDCHAR

STARTCHAR e
ENCODING 101
SWIDTH 444 0
DWIDTH 8 0
BBX 7 8 1 0
BITMAP
1C
76
66
CC
F0
C4
C8
70
ENDCHAR

STARTCHAR f
ENCODING 102
SWIDTH 333 0
DWIDTH 6 0
BBX 7 15 1 -3
BITMAP
0E
1A
18
30
FC
30
30
60
60
60
60
C0
C0
C0
80
ENDCHAR

STARTCHAR g
ENCODING 103
SWIDTH 537 0
DWIDTH 9 0
BBX 10 12 0 -3
BITMAP
0180
1E40
3300
6300
6600
3C00
6000
3E00
7F00
8300
8600
7C00
ENDCHAR

STARTCHAR h
ENCODING 104
SWIDTH 611 0
DWIDTH 10 0
BBX 9 12 1 0
BITMAP
7000
3000
3000
3000
6E00
7300
6300
6300
C600
C600
C680
C300
ENDCHAR

STARTCHAR i
ENCODING 105
SWIDTH 333 0
DWIDTH 5 0
BBX 4 12 1 0
BITMAP
30
30
00
00
E0
60
60
60
C0
C0
D0
60
ENDCHAR

STARTCHAR j
ENCODING 106
SWIDTH 315 0
DWIDTH 5 0
BBX 7 15 -2 -3
BITMAP
06
06
00
00
1C
0C
0C
0C
0C
18
18
18
98
D0
60
ENDCHAR

STARTCHAR k
ENCODING 107
SWIDTH 556 0
DWIDTH 9 0
BBX 8 12 1 0
BITMAP
70
30
30
30
6E
73
63
7E
6C
CC
CD
C6
ENDCHAR

STARTCHAR l
ENCODING 108
SWIDTH 333 0
DWIDTH 5 0
BBX 4 12 1 0
BITMAP
70
30
30
30
60
60
60
60
C0
C0
D0
60
ENDCHAR

STARTCHAR m
ENCODING 109
SWIDTH 889 0
DWIDTH 15 0
BBX 14 8 1 0
BITMAP
EF70
7398
6318
6318
C630
C630
C634
C618
ENDCHAR

STARTCHAR n
ENCODING 110
SWIDTH 611 0
DWIDTH 10 0
BBX 9 8 1 0
BITMAP
EE00
7300
6300
6300
6600
C600
C680
C300
ENDCHAR

STARTCHAR o
ENCODING 111
SWIDTH 500 0
DWIDTH 9 0
BBX 8 8 1 0
BITMAP
1E
73
63
C3
C3
C6
CE
78
ENDCHAR

STARTCHAR p
ENCODING 112
SWIDTH 574 0
DWIDTH 10 0
BBX 10 11 0 -3
BITMAP
3B80
1CC0
18C0
18C0
30C0
3180
3980
3700
6000
6000
F000
ENDCHAR

STARTCHAR q
ENCODING 113
SWIDTH 556 0
DWIDTH 9 0
BBX 9 11 1 -3
BITMAP
1D80
3300
6300
6300
C600
C600
CE00
7600
0C00
0C00
1E00
ENDCHAR

STARTCHAR r
ENCODING 114
SWIDTH 444 0
DWIDTH 7 0
BBX 14 8 -7 0
BITMAP
00D8
006C
0064
0060
00C0
80C0
00C0
00C0
ENDCHAR

STARTCHAR s
ENCODING 115
SWIDTH 444 0
DWIDTH 8 0
BBX 7 8 1 0
BITMAP
3C
66
64
30
18
4C
CC
78
ENDCHAR

STARTCHAR t
ENCODING 116
SWIDTH 352 0
DWIDTH 6 0
BBX 5 12 1 0
BITMAP
10
10
30
30
F8
60
60
60
C0
C0
D0
60
ENDCHAR

STARTCHAR u
ENCODING 117
SWIDTH 611 0
DWIDTH 10 0
BBX 8 8 1 0
BITMAP
E3
63
63
66
C6
C6
CE
77
ENDCHAR

STARTCHAR v
ENCODING 118
SWIDTH 519 0
DWIDTH 9 0
BBX 7 8 2 0
BITMAP
E4
66
62
62
C4
C4
C8
70
ENDCHAR

STARTCHAR w
ENCODING 119
SWIDTH 778 0
DWIDTH 13 0
BBX 11 8 2 0
BITMAP
E240
6260
6620
6620
C440
CC40
D480
6300
ENDCHAR

STARTCHAR x
ENCODING 120
SWIDTH 500 0
DWIDTH 9 0
BBX 9 8 0 0
BITMAP
3180
5A80
1C00
1800
0800
1C00
AD00
C600
ENDCHAR

STARTCHAR y
ENCODING 121
SWIDTH 500 0
DWIDTH 9 0
BBX 9 11 0 -3
BITMAP
3100
5980
5880
1880
0D00
0D00
0E00
0C00
0800
D000
6000
ENDCHAR

STARTCHAR z
ENCODING 122
SWIDTH 463 0
DWIDTH 8 0
BBX 8 8 0 0
BITMAP
39
5F
46
0C
18
32
7A
9C
ENDCHAR

STARTCHAR braceleft
ENCODING 123
SWIDTH 333 0
DWIDTH 6 0
BBX 6 15 2 -3
BITMAP
0C
18
10
30
30
20
40
80
40
40
C0
C0
C0
80
60
ENDCHAR

STARTCHAR bar
ENCODING 124
SWIDTH 606 0
DWIDTH 10 0
BBX 2 16 5 -3
BITMAP
C0
C0
C0
C0
C0
C0
C0
C0
C0
C0
C0
C0
C0
C0
C0
C0
ENDCHAR

STARTCHAR braceright
ENCODING 125
SWIDTH 333 0
DWIDTH 6 0
BBX 7 15 -1 -3
BITMAP
0C
02
06
06
06
04
04
02
04
08
18
18
10
30
E0
ENDCHAR

STARTCHAR asciitilde
ENCODING 126
SWIDTH 606 0
DWIDTH 10 0
BBX 10 3 1 4
BITMAP
7040
DCC0
8780
ENDCHAR

STARTCHAR space
ENCODING 160
SWIDTH 278 0
DWIDTH 6 0
BBX 0 0 0 0
BITMAP
ENDCHAR

STARTCHAR Aogonek
ENCODING 161
SWIDTH 704 0
DWIDTH 12 0
BBX 13 14 0 -2
BITMAP
0060
00E0
01E0
0160
0260
0460
0860
1FE0
1060
2060
4060
E0F0
0060
0038
ENDCHAR

STARTCHAR breve
ENCODING 162
SWIDTH 333 0
DWIDTH 6 0
BBX 6 3 1 9
BITMAP
84
78
30
ENDCHAR

STARTCHAR Lslash
ENCODING 163
SWIDTH 667 0
DWIDTH 11 0
BBX 10 12 1 0
BITMAP
3C00
1800
1800
1A00
3400
3800
7000
B000
6040
6080
6180
FF80
ENDCHAR

STARTCHAR currency
ENCODING 164
SWIDTH 606 0
DWIDTH 10 0
BBX 8 8 1 2
BITMAP
BD
66
C3
81
81
C3
66
BD
ENDCHAR

STARTCHAR Lcaron
ENCODING 165
SWIDTH 667 0
DWIDTH 11 0
BBX 10 12 1 0
BITMAP
3CC0
18C0
1840
1880
3000
3000
3000
3000
6040
6080
6180
FF80
ENDCHAR

STARTCHAR Sacute
ENCODING 166
SWIDTH 667 0
DWIDTH 11 0
BBX 10 15 1 0
BITMAP
0300
0C00
0000
0F40
10C0
30C0
3040
3840
1E00
0F00
8380
8180
C180
E100
BE00
ENDCHAR

STARTCHAR section
ENCODING 167
SWIDTH 500 0
DWIDTH 9 0
BBX 6 15 2 -3
BITMAP
38
4C
4C
C0
E0
B0
98
48
64
34
1C
0C
CC
C8
70
ENDCHAR

STARTCHAR dieresis
ENCODING 168
SWIDTH 333 0
DWIDTH 6 0
BBX 6 2 1 9
BITMAP
CC
CC
ENDCHAR

STARTCHAR Scaron
ENCODING 169
SWIDTH 667 0
DWIDTH 11 0
BBX 10 16 1 0
BITMAP
0880
0700
0200
0000
0F40
10C0
30C0
3040
3840
1E00
0F00
8380
8180
C180
E100
BE00
ENDCHAR

STARTCHAR Scommaaccent
ENCODING 170
SWIDTH 667 0
DWIDTH 11 0
BBX 10 16 1 -4
BITMAP
0F40
10C0
30C0
3040
3840
1E00
0F00
8380
8180
C180
E100
BE00
0000
1800
1800
3000
ENDCHAR

STARTCHAR Tcaron
ENCODING 171
SWIDTH 685 0
DWIDTH 12 0
BBX 12 16 1 0
BITMAP
0880
0700
0200
0000
3FE0
6630
4610
C610
8C10
0C00
0C00
0C00
1800
1800
1800
3C00
ENDCHAR

STARTCHAR Zacute
ENCODING 172
SWIDTH 667 0
DWIDTH 11 0
BBX 11 15 1 0
BITMAP
0180
0600
0000
3FE0
30C0
6180
4300
0300
0600
0C00
1800
1840
30C0
6180
FF80
ENDCHAR

STARTCHAR hyphen
ENCODING 173
SWIDTH 333 0
DWIDTH 6 0
BBX 4 1 1 3
BITMAP
F0
ENDCHAR

STARTCHAR Zcaron
ENCODING 174
SWIDTH 667 0
DWIDTH 11 0
BBX 11 16 1 0
BITMAP
0880
0700
0200
0000
3FE0
30C0
6180
4300
0300
0600
0C00
1800
1840
30C0
6180
FF80
ENDCHAR

STARTCHAR Zdotaccent
ENCODING 175
SWIDTH 667 0
DWIDTH 11 0
BBX 11 15 1 0
BITMAP
0300
0300
0000
3FE0
30C0
6180
4300
0300
0600
0C00
1800
1840
30C0
6180
FF80
ENDCHAR

STARTCHAR degree
ENCODING 176
SWIDTH 400 0
DWIDTH 7 0
BBX 5 5 2 7
BITMAP
70
88
88
88
70
ENDCHAR

STARTCHAR aogonek
ENCODING 177
SWIDTH 574 0
DWIDTH 10 0
BBX 10 10 1 -2
BITMAP
1D80
3300
6300
C300
C600
C600
4680
3B00
0300
01C0
ENDCHAR

STARTCHAR ogonek
ENCODING 178
SWIDTH 333 0
DWIDTH 6 0
BBX 4 2 1 -2
BITMAP
C0
70
ENDCHAR

STARTCHAR lslash
ENCODING 179
SWIDTH 333 0
DWIDTH 5 0
BBX 6 12 0 0
BITMAP
38
18
18
18
34
38
70
B0
60
60
68
30
ENDCHAR

STARTCHAR acute
ENCODING 180
SWIDTH 333 0
DWIDTH 6 0
BBX 4 2 1 9
BITMAP
30
C0
ENDCHAR

STARTCHAR lcaron
ENCODING 181
SWIDTH 380 0
DWIDTH 5 0
BBX 7 12 1 0
BITMAP
76
36
32
34
60
60
60
60
C0
C0
D0
60
ENDCHAR

STARTCHAR sacute
ENCODING 182
SWIDTH 444 0
DWIDTH 8 0
BBX 7 11 1 0
BITMAP
0C
30
00
3C
66
64
30
18
4C
CC
78
ENDCHAR

STARTCHAR caron
ENCODING 183
SWIDTH 333 0
DWIDTH 6 0
BBX 5 3 1 9
BITMAP
88
70
20
ENDCHAR

STARTCHAR commaaccent
ENCODING 184
SWIDTH 333 0
DWIDTH 6 0
BBX 3 3 1 -4
BITMAP
60
60
C0
ENDCHAR

STARTCHAR scaron
ENCODING 185
SWIDTH 444 0
DWIDTH 8 0
BBX 7 12 1 0
BITMAP
22
1C
08
00
3C
66
64
30
18
4C
CC
78
ENDCHAR

STARTCHAR scommaaccent
ENCODING 186
SWIDTH 444 0
DWIDTH 8 0
BBX 7 12 1 -4
BITMAP
3C
66
64
30
18
4C
CC
78
00
30
30
60
ENDCHAR

STARTCHAR tcaron
ENCODING 187
SWIDTH 427 0
DWIDTH 6 0
BBX 7 13 1 0
BITMAP
06
16
12
34
30
F8
60
60
60
C0
C0
D0
60
ENDCHAR

STARTCHAR zacute
ENCODING 188
SWIDTH 463 0
DWIDTH 8 0
BBX 8 11 0 0
BITMAP
06
18
00
39
5F
46
0C
18
32
7A
9C
ENDCHAR

STARTCHAR hungarumlaut
ENCODING 189
SWIDTH 333 0
DWIDTH 6 0
BBX 9 2 0 9
BITMAP
3180
C600
ENDCHAR

STARTCHAR zcaron
ENCODING 190
SWIDTH 463 0
DWIDTH 8 0
BBX 8 12 0 0
BITMAP
11
0E
04
00
39
5F
46
0C
18
32
7A
9C
ENDCHAR

STARTCHAR zdotaccent
ENCODING 191
SWIDTH 463 0
DWIDTH 8 0
BBX 8 11 0 0
BITMAP
0C
0C
00
39
5F
46
0C
18
32
7A
9C
ENDCHAR

STARTCHAR Racute
ENCODING 192
SWIDTH 741 0
DWIDTH 13 0
BBX 12 15 1 0
BITMAP
0180
0600
0000
3FE0
1830
1830
1830
3060
3FC0
3300
3180
6180
6180
61A0
F0C0
ENDCHAR

STARTCHAR Aacute
ENCODING 193
SWIDTH 704 0
DWIDTH 12 0
BBX 12 15 0 0
BITMAP
0030
00C0
0000
0060
00E0
01E0
0160
0260
0460
0860
1FE0
1060
2060
4060
E0F0
ENDCHAR

STARTCHAR Acircumflex
ENCODING 194
SWIDTH 704 0
DWIDTH 12 0
BBX 13 16 0 0
BITMAP
0020
0070
0088
0000
0060
00E0
01E0
0160
0260
0460
0860
1FE0
1060
2060
4060
E0F0
ENDCHAR

STARTCHAR Abreve
ENCODING 195
SWIDTH 704 0
DWIDTH 12 0
BBX 13 16 0 0
BITMAP
0108
00F0
0060
0000
0060
00E0
01E0
0160
0260
0460
0860
1FE0
1060
2060
4060
E0F0
ENDCHAR

STARTCHAR Adieresis
ENCODING 196
SWIDTH 704 0
DWIDTH 12 0
BBX 13 15 0 0
BITMAP
0198
0198
0000
0060
00E0
01E0
0160
0260
0460
0860
1FE0
1060
2060
4060
E0F0
ENDCHAR

STARTCHAR Lacute
ENCODING 197
SWIDTH 667 0
DWIDTH 11 0
BBX 10 15 1 0
BITMAP
0300
0C00
0000
3C00
1800
1800
1800
3000
3000
3000
3000
6040
6080
6180
FF80
ENDCHAR

STARTCHAR Cacute
ENCODING 198
SWIDTH 722 0
DWIDTH 12 0
BBX 11 15 2 0
BITMAP
00C0
0300
0000
07A0
18E0
3040
6040
6000
C000
C000
C000
C000
C040
6180
3E00
ENDCHAR

STARTCHAR Ccedilla
ENCODING 199
SWIDTH 722 0
DWIDTH 12 0
BBX 11 15 2 -3
BITMAP
07A0
18E0
3040
6040
6000
C000
C000
C000
C000
C040
6180
3E00
0800
0400
1800
ENDCHAR

STARTCHAR Ccaron
ENCODING 200
SWIDTH 722 0
DWIDTH 12 0
BBX 11 16 2 0
BITMAP
0440
0380
0100
0000
07A0
18E0
3040
6040
6000
C000
C000
C000
C000
C040
6180
3E00
ENDCHAR

STARTCHAR Eacute
ENCODING 201
SWIDTH 722 0
DWIDTH 12 0
BBX 12 15 1 0
BITMAP
00C0
0300
0000
3FF0
1830
1820
1920
3100
3F00
3200
3200
6220
6040
60C0
FF80
ENDCHAR

STARTCHAR Eogonek
ENCODING 202
SWIDTH 722 0
DWIDTH 12 0
BBX 12 14 1 -2
BITMAP
3FF0
1830
1820
1920
3100
3F00
3200
3200
6220
6040
60C0
FF80
0300
01C0
ENDCHAR

STARTCHAR Edieresis
ENCODING 203
SWIDTH 722 0
DWIDTH 12 0
BBX 12 15 1 0
BITMAP
0660
0660
0000
3FF0
1830
1820
1920
3100
3F00
3200
3200
6220
6040
60C0
FF80
ENDCHAR

STARTCHAR Ecaron
ENCODING 204
SWIDTH 722 0
DWIDTH 12 0
BBX 12 16 1 0
BITMAP
0440
0380
0100
0000
3FF0
1830
1820
1920
3100
3F00
3200
3200
6220
6040
60C0
FF80
ENDCHAR

STARTCHAR Iacute
ENCODING 205
SWIDTH 407 0
DWIDTH 6 0
BBX 7 15 1 0
BITMAP
06
18
00
3C
18
18
18
30
30
30
30
60
60
60
F0
ENDCHAR

STARTCHAR Icircumflex
ENCODING 206
SWIDTH 407 0
DWIDTH 6 0
BBX 7 16 1 0
BITMAP
08
1C
22
00
3C
18
18
18
30
30
30
30
60
60
60
F0
ENDCHAR

STARTCHAR Dcaron
ENCODING 207
SWIDTH 778 0
DWIDTH 13 0
BBX 12 16 1 0
BITMAP
0880
0700
0200
0000
3F80
1860
1820
1830
3030
3030
3030
3060
6060
60C0
6180
FE00
ENDCHAR

STARTCHAR Dcroat
ENCODING 208
SWIDTH 778 0
DWIDTH 13 0
BBX 12 12 1 0
BITMAP
3F80
1860
1820
1830
3030
7E30
3030
3060
6060
60C0
6180
FE00
ENDCHAR

STARTCHAR Nacute
ENCODING 209
SWIDTH 815 0
DWIDTH 14 0
BBX 13 15 1 0
BITMAP
00C0
0300
0000
3838
1810
1C10
1C10
1610
2620
2320
2320
41A0
41C0
40C0
E0C0
ENDCHAR

STARTCHAR Ncaron
ENCODING 210
SWIDTH 815 0
DWIDTH 14 0
BBX 13 16 1 0
BITMAP
0440
0380
0100
0000
3838
1810
1C10
1C10
1610
2620
2320
2320
41A0
41C0
40C0
E0C0
ENDCHAR

STARTCHAR Oacute
ENCODING 211
SWIDTH 778 0
DWIDTH 13 0
BBX 11 15 2 0
BITMAP
00C0
0300
0000
0700
18C0
3040
6060
6060
C060
C060
C0C0
C0C0
4180
6300
1C00
ENDCHAR

STARTCHAR Ocircumflex
ENCODING 212
SWIDTH 778 0
DWIDTH 13 0
BBX 11 16 2 0
BITMAP
0100
0380
0440
0000
0700
18C0
3040
6060
6060
C060
C060
C0C0
C0C0
4180
6300
1C00
ENDCHAR

STARTCHAR Ohungarumlaut
ENCODING 213
SWIDTH 778 0
DWIDTH 13 0
BBX 12 15 2 0
BITMAP
0630
18C0
0000
0700
18C0
3040
6060
6060
C060
C060
C0C0
C0C0
4180
6300
1C00
ENDCHAR

STARTCHAR Odieresis
ENCODING 214
SWIDTH 778 0
DWIDTH 13 0
BBX 11 15 2 0
BITMAP
0CC0
0CC0
0000
0700
18C0
3040
6060
6060
C060
C060
C0C0
C0C0
4180
6300
1C00
ENDCHAR

STARTCHAR multiply
ENCODING 215
SWIDTH 606 0
DWIDTH 10 0
BBX 7 8 2 2
BITMAP
82
C6
6C
38
38
6C
C6
82
ENDCHAR

STARTCHAR Rcaron
ENCODING 216
SWIDTH 741 0
DWIDTH 13 0
BBX 12 16 1 0
BITMAP
0440
0380
0100
0000
3FE0
1830
1830
1830
3060
3FC0
3300
3180
6180
6180
61A0
F0C0
ENDCHAR

STARTCHAR Uring
ENCODING 217
SWIDTH 815 0
DWIDTH 14 0
BBX 13 16 2 0
BITMAP
0180
0240
0180
0000
7838
3010
3010
3010
6020
6020
6020
C040
C040
C080
6100
3E00
ENDCHAR

STARTCHAR Uacute
ENCODING 218
SWIDTH 815 0
DWIDTH 14 0
BBX 13 15 2 0
BITMAP
00C0
0300
0000
7838
3010
3010
3010
6020
6020
6020
C040
C040
C080
6100
3E00
ENDCHAR

STARTCHAR Uhungarumlaut
ENCODING 219
SWIDTH 815 0
DWIDTH 14 0
BBX 13 15 2 0
BITMAP
0318
0C60
0000
7838
3010
3010
3010
6020
6020
6020
C040
C040
C080
6100
3E00
ENDCHAR

STARTCHAR Udieresis
ENCODING 220
SWIDTH 815 0
DWIDTH 14 0
BBX 13 15 2 0
BITMAP
0660
0660
0000
7838
3010
3010
3010
6020
6020
6020
C040
C040
C080
6100
3E00
ENDCHAR

STARTCHAR Yacute
ENCODING 221
SWIDTH 685 0
DWIDTH 12 0
BBX 11 15 2 0
BITMAP
0300
0C00
0000
F0E0
6040
3080
3100
1900
1A00
0C00
0C00
0C00
1800
1800
3C00
ENDCHAR

STARTCHAR Tcommaaccent
ENCODING 222
SWIDTH 685 0
DWIDTH 12 0
BBX 12 16 1 -4
BITMAP
3FE0
6630
4610
C610
8C10
0C00
0C00
0C00
1800
1800
1800
3C00
0000
1800
1800
3000
ENDCHAR

STARTCHAR germandbls
ENCODING 223
SWIDTH 556 0
DWIDTH 9 0
BBX 11 15 -1 -3
BITMAP
01C0
0660
0660
0C60
0C40
1980
18C0
18C0
30C0
30C0
2180
6700
6000
4000
8000
ENDCHAR

STARTCHAR racute
ENCODING 224
SWIDTH 444 0
DWIDTH 7 0
BBX 6 11 1 0
BITMAP
0C
30
00
D8
6C
64
60
C0
C0
C0
C0
ENDCHAR

STARTCHAR aacute
ENCODING 225
SWIDTH 574 0
DWIDTH 10 0
BBX 9 11 1 0
BITMAP
0300
0C00
0000
1D80
3300
6300
C300
C600
C600
4680
3B00
ENDCHAR

STARTCHAR acircumflex
ENCODING 226
SWIDTH 574 0
DWIDTH 10 0
BBX 9 12 1 0
BITMAP
0200
0700
0880
0000
1D80
3300
6300
C300
C600
C600
4680
3B00
ENDCHAR

STARTCHAR abreve
ENCODING 227
SWIDTH 574 0
DWIDTH 10 0
BBX 9 12 1 0
BITMAP
1080
0F00
0600
0000
1D80
3300
6300
C300
C600
C600
4680
3B00
ENDCHAR

STARTCHAR adieresis
ENCODING 228
SWIDTH 574 0
DWIDTH 10 0
BBX 9 11 1 0
BITMAP
1980
1980
0000
1D80
3300
6300
C300
C600
C600
4680
3B00
ENDCHAR

STARTCHAR lacute
ENCODING 229
SWIDTH 333 0
DWIDTH 5 0
BBX 5 15 1 0
BITMAP
18
60
00
70
30
30
30
60
60
60
60
C0
C0
D0
60
ENDCHAR

STARTCHAR cacute
ENCODING 230
SWIDTH 444 0
DWIDTH 8 0
BBX 7 11 1 0
BITMAP
06
18
00
1C
66
64
C0
C0
C4
C8
70
ENDCHAR

STARTCHAR ccedilla
ENCODING 231
SWIDTH 444 0
DWIDTH 8 0
BBX 7 11 1 -3
BITMAP
1C
66
64
C0
C0
C4
C8
70
20
10
60
ENDCHAR

STARTCHAR ccaron
ENCODING 232
SWIDTH 444 0
DWIDTH 8 0
BBX 7 12 1 0
BITMAP
22
1C
08
00
1C
66
64
C0
C0
C4
C8
70
ENDCHAR

STARTCHAR eacute
ENCODING 233
SWIDTH 444 0
DWIDTH 8 0
BBX 7 11 1 0
BITMAP
06
18
00
1C
76
66
CC
F0
C4
C8
70
ENDCHAR

STARTCHAR eogonek
ENCODING 234
SWIDTH 444 0
DWIDTH 8 0
BBX 7 10 1 -2
BITMAP
1C
76
66
CC
F0
C4
C8
70
30
1C
ENDCHAR

STARTCHAR edieresis
ENCODING 235
SWIDTH 444 0
DWIDTH 8 0
BBX 8 11 1 0
BITMAP
33
33
00
1C
76
66
CC
F0
C4
C8
70
ENDCHAR

STARTCHAR ecaron
ENCODING 236
SWIDTH 444 0
DWIDTH 8 0
BBX 7 12 1 0
BITMAP
22
1C
08
00
1C
76
66
CC
F0
C4
C8
70
ENDCHAR

STARTCHAR iacute
ENCODING 237
SWIDTH 333 0
DWIDTH 5 0
BBX 4 11 1 0
BITMAP
30
C0
00
E0
60
60
60
C0
C0
D0
60
ENDCHAR

STARTCHAR icircumflex
ENCODING 238
SWIDTH 333 0
DWIDTH 5 0
BBX 5 12 1 0
BITMAP
20
70
88
00
E0
60
60
60
C0
C0
D0
60
ENDCHAR

STARTCHAR dcaron
ENCODING 239
SWIDTH 655 0
DWIDTH 10 0
BBX 12 12 1 0
BITMAP
03B0
01B0
0190
01A0
3B00
6700
6300
C300
C600
C600
C680
7B00
ENDCHAR

STARTCHAR dcroat
ENCODING 240
SWIDTH 611 0
DWIDTH 10 0
BBX 10 12 1 0
BITMAP
0380
0180
07C0
0180
3B00
6700
6300
C300
C600
C600
C680
7B00
ENDCHAR

STARTCHAR nacute
ENCODING 241
SWIDTH 611 0
DWIDTH 10 0
BBX 9 11 1 0
BITMAP
0600
1800
0000
EE00
7300
6300
6300
6600
C600
C680
C300
ENDCHAR

STARTCHAR ncaron
ENCODING 242
SWIDTH 611 0
DWIDTH 10 0
BBX 9 12 1 0
BITMAP
2200
1C00
0800
0000
EE00
7300
6300
6300
6600
C600
C680
C300
ENDCHAR

STARTCHAR oacute
ENCODING 243
SWIDTH 500 0
DWIDTH 9 0
BBX 8 11 1 0
BITMAP
03
0C
00
1E
73
63
C3
C3
C6
CE
78
ENDCHAR

STARTCHAR ocircumflex
ENCODING 244
SWIDTH 500 0
DWIDTH 9 0
BBX 8 12 1 0
BITMAP
04
0E
11
00
1E
73
63
C3
C3
C6
CE
78
ENDCHAR

STARTCHAR ohungarumlaut
ENCODING 245
SWIDTH 500 0
DWIDTH 9 0
BBX 10 11 1 0
BITMAP
18C0
6300
0000
1E00
7300
6300
C300
C300
C600
CE00
7800
ENDCHAR

STARTCHAR odieresis
ENCODING 246
SWIDTH 500 0
DWIDTH 9 0
BBX 9 11 1 0
BITMAP
1980
1980
0000
1E00
7300
6300
C300
C300
C600
CE00
7800
ENDCHAR

STARTCHAR divide
ENCODING 247
SWIDTH 606 0
DWIDTH 10 0
BBX 10 9 1 1
BITMAP
0C00
0C00
0000
0000
FFC0
0000
0000
0C00
0C00
ENDCHAR

STARTCHAR rcaron
ENCODING 248
SWIDTH 444 0
DWIDTH 7 0
BBX 6 12 1 0
BITMAP
44
38
10
00
D8
6C
64
60
C0
C0
C0
C0
ENDCHAR

STARTCHAR uring
ENCODING 249
SWIDTH 611 0
DWIDTH 10 0
BBX 8 12 1 0
BITMAP
0C
12
0C
00
E3
63
63
66
C6
C6
CE
77
ENDCHAR

STARTCHAR uacute
ENCODING 250
SWIDTH 611 0
DWIDTH 10 0
BBX 8 11 1 0
BITMAP
06
18
00
E3
63
63
66
C6
C6
CE
77
ENDCHAR

STARTCHAR uhungarumlaut
ENCODING 251
SWIDTH 611 0
DWIDTH 10 0
BBX 10 11 1 0
BITMAP
18C0
6300
0000
E300
6300
6300
6600
C600
C600
CE00
7700
ENDCHAR

STARTCHAR udieresis
ENCODING 252
SWIDTH 611 0
DWIDTH 10 0
BBX 8 11 1 0
BITMAP
33
33
00
E3
63
63
66
C6
C6
CE
77
ENDCHAR

STARTCHAR yacute
ENCODING 253
SWIDTH 500 0
DWIDTH 9 0
BBX 9 14 0 -3
BITMAP
0300
0C00
0000
3100
5980
5880
1880
0D00
0D00
0E00
0C00
0800
D000
6000
ENDCHAR

STARTCHAR tcommaaccent
ENCODING 254
SWIDTH 352 0
DWIDTH 6 0
BBX 5 16 1 -4
BITMAP
10
10
30
30
F8
60
60
60
C0
C0
D0
60
00
60
60
C0
ENDCHAR

STARTCHAR dotaccent
ENCODING 255
SWIDTH 333 0
DWIDTH 6 0
BBX 2 2 3 9
BITMAP
C0
C0
ENDCHAR
ENDFONT
